<?xml version="1.0" standalone="no"?>
<!DOCTYPE svg PUBLIC "-//W3C//DTD SVG 20010904//EN"
 "http://www.w3.org/TR/2001/REC-SVG-20010904/DTD/svg10.dtd">
<svg version="1.0" xmlns="http://www.w3.org/2000/svg"
 width="944.000000pt" height="944.000000pt" viewBox="0 0 944.000000 944.000000"
 preserveAspectRatio="xMidYMid meet">
<metadata>
Created by potrace 1.11, written by Peter Selinger 2001-2013
</metadata>
<g transform="translate(0.000000,944.000000) scale(0.100000,-0.100000)"
fill="#000000" stroke="none">
<path d="M1840 9365 l0 -75 -79 0 c-44 0 -83 -4 -86 -10 -3 -5 -37 -10 -76
-10 l-69 0 0 -75 c0 -43 -4 -75 -10 -75 -6 0 -10 -33 -10 -80 l0 -80 -75 0
-75 0 0 -485 0 -485 74 0 74 0 7 -154 7 -154 154 -7 154 -7 -2 -67 -2 -66 -3
63 -4 62 -64 0 -65 0 0 -64 0 -64 78 -7 c42 -3 148 -8 235 -11 l157 -5 0 -74
0 -75 160 0 160 0 0 75 0 75 118 0 c66 0 174 3 240 7 l122 6 0 74 0 73 79 0
c92 0 91 -1 91 101 l0 69 73 0 74 0 6 122 c4 66 7 172 7 235 l0 113 75 0 75 0
0 165 0 165 -75 0 -75 0 0 118 c0 66 -3 174 -7 240 l-6 122 -79 0 -78 0 0 79
0 79 -155 7 -155 7 0 74 0 74 -485 0 -485 0 0 -75z"/>
<path d="M4305 7520 c-55 -4 -126 -8 -157 -9 l-57 -1 -3 -72 -3 -73 -81 -3
-81 -3 -8 -159 -7 -160 -74 0 -74 0 0 -480 0 -480 80 0 80 0 0 -85 0 -85 75 0
74 0 3 -77 3 -78 83 -3 82 -3 0 -74 0 -75 485 0 485 0 0 74 0 74 154 7 154 7
7 154 7 153 77 3 76 3 3 400 c2 220 0 473 -3 563 l-7 162 -79 0 -79 0 0 80 0
80 -80 0 -80 0 0 78 0 79 -127 6 c-162 9 -796 6 -928 -3z"/>
<path d="M6800 5686 l0 -74 -160 -7 -159 -8 -3 -76 -3 -76 -77 -3 -78 -3 0
-79 0 -80 -79 0 -78 0 -7 -280 c-4 -154 -4 -406 0 -560 l7 -280 78 0 78 0 3
-82 3 -83 77 -3 77 -3 3 -77 3 -77 163 -3 164 -3 -4 -68 -3 -69 160 -7 c88 -4
196 -5 240 -3 l80 3 3 73 3 72 113 0 c62 0 167 3 234 7 l121 6 3 76 3 76 78 3
77 3 0 69 c0 37 2 74 5 82 4 10 25 12 80 10 l75 -4 0 561 0 560 -77 3 -78 3
-1 75 -1 75 -79 5 -79 5 -3 77 -3 77 -157 3 -157 3 -3 78 -3 77 -319 0 -320 0
0 -74z"/>
<path d="M1840 5520 l0 -80 -80 0 -80 0 0 -80 0 -80 -80 0 -80 0 0 -80 0 -80
-80 0 -80 0 0 -486 0 -485 77 2 76 2 -2 -75 c-1 -45 2 -79 8 -83 6 -3 11 -39
11 -80 l0 -73 155 -7 155 -7 0 -73 0 -72 128 -6 c163 -9 445 -9 750 0 l241 6
3 76 3 76 77 3 77 3 3 77 3 77 76 3 76 3 6 121 c9 156 9 740 0 886 l-6 112
-74 0 -73 0 0 80 0 80 -80 0 -80 0 0 80 0 80 -85 0 -85 0 0 80 0 80 -480 0
-480 0 0 -80z"/>
<path d="M4328 3683 l-88 -4 0 -79 0 -80 -85 0 -85 0 0 -75 0 -74 -72 -3 -73
-3 -3 -82 -3 -83 -79 0 -80 0 0 -480 0 -480 80 0 80 0 0 -85 0 -85 75 0 74 0
3 -77 3 -78 83 -3 82 -3 0 -73 0 -73 243 -6 c133 -4 351 -4 485 0 l242 6 0 72
0 73 155 7 154 7 3 77 3 76 76 3 76 3 6 121 c4 67 7 174 7 240 l0 118 75 0 75
0 0 160 0 160 -75 0 -75 0 0 118 c0 66 -3 174 -7 240 l-6 122 -79 0 -78 0 0
80 0 80 -80 0 -80 0 0 78 0 79 -242 6 c-234 7 -611 6 -790 0z"/>
<path d="M1837 1913 c-4 -3 -7 -37 -7 -74 l0 -67 -154 -7 -154 -7 -7 -159 -7
-159 -74 0 -74 0 0 -480 0 -480 75 0 74 0 3 -82 3 -83 77 -3 77 -3 3 -77 3
-77 83 -3 82 -3 0 -74 0 -75 485 0 485 0 0 74 0 74 155 7 154 7 3 77 3 76 76
3 76 3 6 121 c9 157 9 879 0 1036 l-6 121 -76 3 -76 3 -3 78 -3 77 -79 0 -80
0 0 80 0 80 -558 0 c-307 0 -562 -3 -565 -7z"/>
</g>
</svg>
